<svg width="70" height="71" fill="none" xmlns="http://www.w3.org/2000/svg"><path fill-rule="evenodd" clip-rule="evenodd" d="M35 .536133C6.1775.536133 0 6.71363 0 35.5361c0 28.8225 6.1775 35 35 35 28.8225 0 35-6.1775 35-35C70 6.71363 63.8225.536133 35 .536133ZM25.76 22.79v23.7883h11.1251c4.5873 0 8.0548-2.9555 8.0548-7.0644 0-1.6231-.5199-2.9677-1.4621-4.004-.6479-.7127-1.4955-1.2796-2.5111-1.6908.6962-.7719 1.1347-1.6723 1.3287-2.7013.0776-.4125.1161-.8456.1161-1.2994 0-4.1449-3.4676-7.0284-8.0548-7.0284H25.76Zm20.5796 11.4852c-.4003-.5609-.86-1.0606-1.3666-1.5019.3045-.9387.4486-1.931.4486-2.9549 0-6.2067-5.25-10.032-11.0649-10.032H22.75v29.7954h14.1351c5.8475 0 11.0649-3.9254 11.0649-10.0679 0-1.9329-.5312-3.727-1.6104-5.2387Zm-12.3803-2.078c.278 0 .5355-.0292.7706-.085 1.0175-.2414 1.6134-.9808 1.6134-2.0055 0-1.0248-.5959-1.7641-1.6134-2.0055-.2351-.0558-.4926-.085-.7706-.085h-2.2394v4.181h2.2394Zm2.6919 6.1412c.0029-.0006.0043-.001.0042-.0012-.0002-.0001-.0048.0006-.0132.0027.0039-.0006.0069-.0011.009-.0015Zm-.009 1.8449c.0091.0014.0134.0024.0132.0026-.0002.0002-.0048-.0005-.0132-.0026Zm2.2295-.9217c0 1.4057-.903 2.0905-2.3839 2.0905h-4.7679v-4.181h4.7679c1.4809 0 2.3839.6848 2.3839 2.0905Z" fill="#fff"/></svg>