<svg width="21" height="20" fill="none" xmlns="http://www.w3.org/2000/svg"><path d="M20.0015 10.0082c-.0033 4.3024-2.7581 8.1205-6.84 9.48-.1528.0471-.3188.0213-.45-.07-.1313-.0955-.2093-.2477-.21-.41v-2.67c.0216-.7191-.1511-1.4308-.5-2.06-.0528-.0823-.0528-.1877 0-.27.0405-.0759.1148-.1278.2-.14 2.44-.25 3.8-1.22 3.8-3.86.0588-1.23263-.3685-2.43913-1.19-3.35999.1198-.38899.1838-.79302.19-1.2-.0043-.36488-.0547-.72776-.15-1.08-.0629-.23488-.2885-.38812-.53-.36-.9163.13005-1.7692.54252-2.44 1.18-1.2419-.23994-2.51818-.23994-3.76003 0-.67085-.63748-1.52375-1.04995-2.44-1.18-.24151-.02812-.46712.12512-.53.36-.09531.35224-.14571.71512-.15 1.08.00622.40698.07019.81101.19 1.2-.82152.92086-1.24882 2.12736-1.19 3.35999 0 2.78 1.51 3.71 4.28 3.94-.34385.4506-.57989.974-.69 1.53v.12c-.00481.0466-.00481.0935 0 .14-.04161.3144-.32427.5396-.64.51-.15054-.0071-.29754-.0481-.43-.12-.54479-.3318-1.02572-.7585-1.42-1.26-.25121-.2848-.5183-.5553-.8-.81-.17899-.1549-.37731-.286-.59-.39-.14904-.0837-.33095-.0837-.48 0-.14308.0918-.22971.25-.23.42v.06c.00029.17.08692.3282.23.42.35897.3005.6693.6547.92 1.05.42338.6634.96184 1.2459 1.59 1.72.41388.2775.90174.4238 1.4.42h.36v1.25c-.00077.1623-.07875.3145-.21.41-.13126.0913-.29721.1171-.45.07C1.99352 17.8735-.857286 12.8637.230845 7.87112 1.31897 2.87854 5.99597-.490604 11.0762.0585358 16.1563.607676 20.0054 4.89843 20.0015 10.0082Z" fill="#474747"/></svg>