<svg width="18" height="17" fill="none" xmlns="http://www.w3.org/2000/svg"><path fill-rule="evenodd" clip-rule="evenodd" d="M0 2C0 .895431.89543 0 2 0c.53043 0 1.03914.210713 1.41421.585787C3.78929.960859 4 1.46957 4 2c0 1.10457-.89543 2-2 2s-2-.89543-2-2Zm17.5 8.41c.0345-2.16511-1.4426-4.06238-3.55-4.56001-1.4123-.30409-2.8843.09467-3.95 1.07v-.42c0-.27614-.22386-.5-.5-.5H7c-.27614 0-.5.22386-.5.5V16.5c0 .2761.22386.5.5.5h2.5c.27614 0 .5-.2239.5-.5v-5.64c-.02469-1.00429.6753-1.88133 1.66-2.08001.5864-.10121 1.1873.06391 1.6397.45051.4523.3866.709.9545.7003 1.5495v5.72c0 .2761.2239.5.5.5H17c.2761 0 .5-.2239.5-.5v-6.09ZM4 6.5v10c0 .2761-.22386.5-.5.5H1c-.276142 0-.5-.2239-.5-.5v-10c0-.27614.223858-.5.5-.5h2.5c.27614 0 .5.22386.5.5Z" fill="#474747"/></svg>