<svg width="20" height="17" fill="none" xmlns="http://www.w3.org/2000/svg"><path d="M19.97 2.46378c-.516.68835-1.1398 1.2888-1.8472 1.77817v.54944c.0057 3.26541-1.2987 6.39651-3.6206 8.69141-2.322 2.2949-5.46726 3.5615-8.73082 3.516-1.88673.0063-3.7493-.4245-5.441811-1.2587-.09126-.0398-.150121-.1301-.149775-.2298v-.1098c0-.1435.116231-.2598.25961-.2598 1.854616-.0611 3.643056-.7041 5.112306-1.8381-1.67868-.0338-3.18906-1.0282-3.88415-2.5573-.03511-.0836-.02418-.1794.02884-.2528.05303-.0735.14048-.114.23077-.1069.51018.0513 1.02547.0038 1.51771-.1398C1.59176 9.86109.199341 8.32265.00006473 6.43969-.00701784 6.34936.0334619 6.26187.10688 6.20882c.073418-.05305.169163-.06399.252644-.02886.497298.21943 1.034126.335 1.577626.33965C.313374 5.45384-.38799 3.42672.229719 1.58469.293481 1.4057.44667 1.27347.63299 1.2366c.186321-.03688.37829.02705.50536.16827 2.19119 2.33208 5.20191 3.72175 8.39737 3.87601-.08185-.32661-.12211-.66226-.11982-.99897.02988-1.76555 1.1223-3.338343 2.7658-3.982049 1.6435-.643707 3.5129-.2309338 4.7329 1.045079.8317-.15843 1.6356-.437776 2.3864-.829151.055-.034335.1248-.034335.1798 0 .0343.055021.0343.124794 0 .179815-.3637.832746-.978 1.531196-1.7574 1.997946.6825-.07915 1.353-.24014 1.997-.47951.0542-.03691.1255-.03691.1797 0 .0454.02078.0794.06053.0929.10865.0134.04812.005.09973-.023.14109Z" fill="#474747"/></svg>