<svg width="18" height="20" fill="none" xmlns="http://www.w3.org/2000/svg"><path d="M16.1532 7.63418c-.9174-.62746-1.4927-1.46642-1.9527-2.7583-.171-.48023-.5976-.79075-1.0868-.79075-.5259 0-1.0068.33913-1.3192.93026-.1754.32658-.2832.68516-.317 1.05433-.324-.59081-.9823-.7165-1.2944-.29637 0 0-2.56705-1.95148-3.44266-2.57282-1.16362-.82482-2.70493.08871-2.66636 1.03215-1.46931-.79654-3.082309.60977-2.58536 2.08358C.920411 6.21212-.533151 7.71872.994985 8.87591-.0635238 8.98456-.474648 10.6419.755511 11.3963c0 0 .005786.2292.022179.3417-.8106769.2463-1.090332 1.7789-.306334 2.2627 0 0 5.654164 3.6104 7.600504 4.6966 1.05754.5901 2.87854.8219 4.50084.295 1.5754-.1633 2.9119-.9984 3.9859-2.4866 2.9556-4.0959.6142-8.17399-.4054-8.87152Zm-.3462 8.47222c-1.2308 1.7294-2.9984 1.9088-4.351 1.9088-2.20799 0-3.55676-1.0586-3.55676-1.0586L1.83941 12.432c-1.147223-.792-.45644-2.054.34845-2.0308l4.82067 3.2848.59338.0369s-4.30572-3.091-5.69981-4.17903c-.8139-.63517-.54646-1.8483.50723-2.08938L8.4383 11.7824l.59274.037-6.44009-4.99461c-1.36067-.99455.00482-2.86984 1.32402-1.91483 1.52138 1.10126 6.09843 4.5918 6.09843 4.5918l.5933.03728-6.02538-4.99103c-.05208-.77017.97236-1.43974 1.79139-.82707 1.64707 1.23209 6.59089 4.9245 6.59089 4.9245-.1273-.35648-.191-.62457-.191-.62457s-.9392-1.56156-.4304-2.6985c.4468-.99712 1.3507-.83511 1.533-.29927.4844 1.42656.9862 2.27324 1.99 2.98684 1.2819.91129 2.5928 4.37326-.0582 8.09646Z" fill="#000"/><path d="M13.5129.285762 10.7453 0l.9444 3.94088L13.5129.285762ZM15.8029 1.04919l-1.4064 3.27646 3.2804-.87882-1.874-2.39764ZM8.07092.497925 6.07477 2.14789l2.87498 1.87336L8.07092.497925Z" fill="#000"/></svg>