<svg width="18" height="20" fill="none" xmlns="http://www.w3.org/2000/svg"><path d="M14.9469 13.4625c-.4676.0001-.929.1077-1.3484.3146-.4194.2069-.7856.5075-1.0702.8785l-6.58512-3.7374c.22126-.642.22126-1.33961 0-1.98161l6.58512-3.73742c.4596.59636 1.1236 1.00165 1.8641 1.1379.7405.13625 1.5052-.00618 2.1471-.39988.6418-.3937 1.1153-1.01085 1.3295-1.7327.2141-.72185.1537-1.49739-.1696-2.1774-.3233-.68-.8866-1.216418-1.5817-1.506028-.695-.289611-1.4725-.311952-2.183-.062723-.7105.249228-1.3038.752411-1.6656 1.412731-.3618.66032-.4666 1.43112-.2942 2.16408L5.27757 7.83629c-.41909-.44583-.96246-.75544-1.55965-.88869-.59719-.13325-1.22065-.08398-1.7895.14142-.56885.22539-1.056847.61651-1.400707 1.12262C.183853 8.71775 0 9.31551 0 9.92739c0 .61191.183853 1.20961.527713 1.71571.34386.5062.831857.8973 1.400707 1.1227.56885.2254 1.19231.2746 1.7895.1414.59719-.1333 1.14056-.4429 1.55965-.8887l6.69733 3.8012c-.1444.617-.0932 1.2637.1465 1.8503.2398.5866.6561 1.0841 1.1913 1.4234.5352.3393 1.1627.5037 1.7955.4703.6328-.0334 1.2396-.2629 1.736-.6567.4965-.3938.8582-.9323 1.0348-1.5409.1766-.6086.1595-1.2571-.049-1.8555-.2086-.5984-.5982-1.117-1.1148-1.484-.5166-.367-1.1346-.5642-1.7683-.5641Zm0-11.89085c.3496 0 .6914.10367.982.29789.2907.19422.5173.47027.651.79325.1338.32298.1688.67838.1006 1.02125-.0682.34288-.2365.65783-.4837.90502-.2472.2472-.5622.41555-.905.48375-.3429.0682-.6983.0332-1.0213-.10059-.323-.13378-.599-.36033-.7932-.65101-.1943-.29067-.2979-.63241-.2979-.982.0005-.46863.1869-.91791.5183-1.24928.3313-.33137.7806-.51776 1.2492-.51828ZM3.05607 11.695c-.34959 0-.69133-.1037-.98201-.2979-.29067-.1943-.51722-.4703-.651-.7933-.13379-.323-.16879-.67837-.10059-1.02124.0682-.34288.23655-.65783.48374-.90502.2472-.2472.56215-.41555.90502-.48375.34288-.0682.69828-.0332 1.02125.10059.32298.13378.59904.36033.79326.65101.19422.29067.29789.63241.29789.982-.00052.46861-.18691.91791-.51828 1.24931-.33137.3313-.78066.5177-1.24928.5183Zm11.89083 6.5881c-.3496 0-.6913-.1036-.982-.2979-.2906-.1942-.5172-.4702-.651-.7932-.1338-.323-.1688-.6784-.1006-1.0213.0682-.3428.2366-.6578.4838-.905.2472-.2472.5621-.4155.905-.4837.3429-.0682.6983-.0332 1.0212.1006.323.1337.5991.3603.7933.651.1942.2906.2979.6324.2979.982-.0005.4686-.1869.9179-.5183 1.2492-.3314.3314-.7806.5178-1.2493.5183Z" fill="#000"/></svg>