<svg width="59" height="59" fill="none" xmlns="http://www.w3.org/2000/svg"><path fill-rule="evenodd" clip-rule="evenodd" d="M29.12 0C5.13968 0 0 5.13968 0 29.12c0 23.9803 5.13968 29.12 29.12 29.12 23.9803 0 29.12-5.1397 29.12-29.12C58.24 5.13968 53.1003 0 29.12 0Zm-7.6877 18.5151V38.307h9.2561c3.8166 0 6.7016-2.4591 6.7016-5.8777 0-1.3503-.4325-2.4691-1.2165-3.3313-.539-.5929-1.2442-1.0646-2.0892-1.4067.5792-.6422.944-1.3914 1.1054-2.2475.0646-.3432.0967-.7036.0967-1.0811 0-3.4486-2.8851-5.8476-6.7017-5.8476h-7.1524Zm17.1223 9.5557c-.3331-.4667-.7156-.8824-1.1371-1.2496.2534-.7811.3732-1.6066.3732-2.4585 0-5.164-4.368-8.3466-9.206-8.3466H18.928v24.7898h11.7604c4.8651 0 9.206-3.266 9.206-8.3766 0-1.6081-.442-3.1008-1.3398-4.3585Zm-10.3004-1.7289c.2312 0 .4454-.0243.6411-.0707.8465-.2009 1.3423-.8161 1.3423-1.6686 0-.8527-.4958-1.4678-1.3423-1.6686-.1957-.0464-.4099-.0707-.6411-.0707h-1.8633v3.4786h1.8633Zm2.243 5.1085c.0002.0001-.0033.001-.0109.0022.007-.0017.0108-.0023.0109-.0022Zm-.0109 1.5359c.0076.0012.0111.002.0109.0022-.0001.0001-.0039-.0005-.0109-.0022Zm1.855-.7668c0 1.1695-.7513 1.7393-1.9835 1.7393h-3.9669v-3.4787h3.9669c1.2322 0 1.9835.5698 1.9835 1.7394Z" fill="#000"/></svg>