<svg width="16" height="16" fill="none" xmlns="http://www.w3.org/2000/svg"><path fill-rule="evenodd" clip-rule="evenodd" d="m12.331 11.0715 3.5549 3.5598c.1588.1766.1509.447-.0178.6141l-.6221.623c-.0834.0842-.197.1316-.3155.1316s-.232-.0474-.3155-.1316l-3.5549-3.5599c-.0983-.0985-.1875-.2057-.2666-.3204l-.6665-.8899c-1.10287.8819-2.4724 1.362-3.88373 1.3616C3.33502 12.4699.807867 10.461.157951 7.62231-.491966 4.78365.90881 1.87288 3.53098.613257 6.15315-.646363 9.29689.0813446 11.101 2.36555c1.8042 2.28422 1.7872 5.51531-.0409 7.78035l.8888.6141c.1388.089.267.1935.3821.3115ZM1.79968 6.23008c0 2.45755 1.98947 4.44982 4.44361 4.44982 1.17852 0 2.30877-.4688 3.14211-1.30334.8333-.8345 1.3015-1.96632 1.3015-3.14648 0-2.45756-1.98947-4.44981-4.44361-4.44981-2.45414 0-4.44361 1.99225-4.44361 4.44981Z" fill="#fff"/></svg>