<svg width="506" height="200" fill="none" xmlns="http://www.w3.org/2000/svg"><path d="M158.544 131.895v-1.5h-28.97V68.6764H109.252l-.059 1.4389-2.46 60.2797H31.0287L107.806 7.9956l1.441-2.29707H83.9154l-.4409.70312L1.72918 136.766l-.22918.365v13.646h105.173v44.336h22.901v-44.336h28.97v-18.882Zm38.327 42.012.003.004c13.008 15.765 31.222 23.595 54.436 23.595s41.389-7.83 54.314-23.599c13.004-15.762 19.359-40.366 19.359-73.501 0-33.2151-6.312-57.8204-19.233-73.5007-12.844-15.7731-31.064-23.59994-54.44-23.59994-23.378 0-41.638 7.82774-54.565 23.59904l-.001.0007c-12.836 15.6796-19.107 40.2846-19.107 73.5009 0 33.136 6.314 57.739 19.234 73.501Zm80.837-4.607-.007.004c-7.098 4.598-15.868 6.939-26.391 6.939-10.518 0-19.331-2.339-26.515-6.937-7.029-4.637-12.617-12.462-16.66-23.681-3.95-11.193-5.959-26.367-5.959-45.597 0-18.9754 2.009-33.9806 5.957-45.0888 4.043-11.1371 9.63-18.8774 16.658-23.4303 7.184-4.6 15.999-6.9399 26.519-6.9399 10.518 0 19.285 2.3808 26.381 7.0578l.008.0054.009.0054c7.105 4.5505 12.69 12.3268 16.65 23.5455l.003.0092c4.032 11.1896 6.083 26.3615 6.083 45.5917 0 18.976-2.051 33.979-6.082 45.084l-.003.009c-3.958 11.133-9.543 18.871-16.651 23.423Zm71.248-43.104h-1.5v20.382h28.97v44.337h22.901v-44.337H504.5v-13.645l-.229-.366L422.525 2.20313l-.44-.70313H396.753l1.441 2.29707L474.971 126.196h-75.704l-2.46-60.2793-.059-1.4388H376.426v61.7181h-27.47Z" fill="#fff" stroke="#A5A5A5" stroke-width="3"/></svg>