<svg width="6" height="11" fill="none" xmlns="http://www.w3.org/2000/svg"><path d="M.0784063 1.02501C.0282258.975239 0 .907489 0 .836812S.0282258.698385.0784063.648615L.640348.0866728C.688449.0354209.755607.00634766.825895.00634766c.070288 0 .137446.02907324.185545.08032514L5.88337 4.9586c.07459.0745.11654.17556.11663.28097v.13784c-.00009.10541-.04204.20648-.11663.28097L1.01144 10.5303c-.048099.0513-.115257.0803-.185545.0803-.070288 0-.137446-.029-.185547-.0803l-.5619417-.56193C.0282258 9.9186 0 9.85085 0 9.78017s.0282258-.13843.0784063-.1882L4.36189 5.30849.0784063 1.02501Z" fill="#474747"/></svg>